<?xml version="1.0" encoding="utf-8"?>
<!-- Generator: Adobe Illustrator 28.1.0, SVG Export Plug-In . SVG Version: 6.00 Build 0)  -->
<svg version="1.1" id="Layer_1" xmlns="http://www.w3.org/2000/svg" xmlns:xlink="http://www.w3.org/1999/xlink" x="0px" y="0px"
	 viewBox="0 0 202 50" style="enable-background:new 0 0 202 50;" xml:space="preserve">
<style type="text/css">
	.st0{fill:#FFFFFF;}
	.st1{fill:#004477;}
	.st2{fill:#58AB5F;}
	.st3{fill:#66B76C;}
	.st4{opacity:0.5;}
	
		.st5{opacity:0.5;clip-path:url(#SVGID_00000080186957889364454220000000226313144036644543_);fill:url(#SVGID_00000168113102376829319310000000543163382787007878_);enable-background:new    ;}
	.st6{opacity:0.3;fill:url(#SVGID_00000014594697914762849620000001042995828101587593_);enable-background:new    ;}
	.st7{opacity:0.3;fill:url(#SVGID_00000045597621715744542030000007042763279811958681_);enable-background:new    ;}
	.st8{opacity:0.3;fill:url(#SVGID_00000133522356008299370840000011253985344984423342_);enable-background:new    ;}
	.st9{opacity:0.3;fill:url(#SVGID_00000153694365094411907720000002117728742796692908_);enable-background:new    ;}
	.st10{enable-background:new    ;}
	.st11{fill:#646665;}
	.st12{fill:#03568C;}
</style>
<g>
	<g>
		<g>
			<polygon class="st0" points="49.2,41.6 12.6,41.6 12.6,26.7 12.5,22.6 49.1,20.3 			"/>
			<path class="st1" d="M15.4,11.1l31.4,2.6c0,0,2.5-0.1,2.4,2.7v6.7h-11c0,0-3.3-0.1-4.6,1s-2.2,2-2.3,3.9c0,0,0.5-3.5-3.3-4.7
				c0,0-2.6-0.6-4.9-0.6l-10.6-0.1v-9.3C12.5,13.3,12,10.9,15.4,11.1z"/>
			<path class="st2" d="M30.9,34c0,0.6-0.1,2.1-1.7,3.2c0,0-0.9,1.1-3.8,1.3l-10.1-0.1v-9.6h11.3c0,0,1,0.2,1.1-0.9
				c0,0,0.3-1.4-1.1-1.4h-14V47c0,0-0.1,2.7,4.4,2.4l16.4-1.7l13.8-1.3c0,0,2.3,0.1,2.1-2.4V26.7l-11.6-0.1c0,0-3.8,0-3.7,3.2v2.9
				c0,0-0.1,2.7,3.4,2.6l6.5-0.1v-1.8h-5.3c0,0-2.4,0.2-2.2-2.8c0,0,0-0.9,0.3-1H42h5.5l0.1,9.1L37.7,39c0,0-3.3,0.3-5-1.8
				c0,0-1.7-1.6-1.7-4.8"/>
			<path class="st3" d="M18.6,32.3h8c0,0,1.2-0.2,1.2,0.8c0,1.1-0.6,1.5-1.3,1.5c-0.8,0-7.9,0-7.9,0S18.6,32.3,18.6,32.3z"/>
			<g class="st4">
				<g>
					<g>
						<defs>
							<path id="SVGID_1_" d="M21.5,11.5l24.9,2.2c3.2,0.2,2.7,2.7,2.7,2.7v6.7l-11.6,0.1c-6.3-0.1-6.3,4.8-6.3,4.8
								c0.5-5.8-7.7-5.3-7.7-5.3C23.1,20.4,21.5,11.5,21.5,11.5z M30.8,32.3c0,0,0.6,2.9-0.7,4.1c0,0,6.2,9.1,10.3,10.8l7-0.7
								c0,0,1.9,0.1,1.9-2.6V26.7l-10.7-0.1c0,0-4-0.4-4.5,2.7v2.9c0,0,0,2.8,3.2,2.9h6.5v-1.7l-5,0.1c0,0-3.3-0.4-2.5-3.5
								c0,0-0.1-0.3,0.4-0.3h10.7l0.2,9.1L37.5,39C37.5,39,31.5,39,30.8,32.3z"/>
						</defs>
						<clipPath id="SVGID_00000065791087046272778980000008698756158903196577_">
							<use xlink:href="#SVGID_1_"  style="overflow:visible;"/>
						</clipPath>
						
							<linearGradient id="SVGID_00000171688908280698163170000008824026194467874730_" gradientUnits="userSpaceOnUse" x1="21.5" y1="-3271.6001" x2="49.2715" y2="-3271.6001" gradientTransform="matrix(1 0 0 1 0 3301)">
							<stop  offset="0" style="stop-color:#FFFFFF"/>
							<stop  offset="1" style="stop-color:#FFFFFF;stop-opacity:0"/>
						</linearGradient>
						
							<path style="opacity:0.5;clip-path:url(#SVGID_00000065791087046272778980000008698756158903196577_);fill:url(#SVGID_00000171688908280698163170000008824026194467874730_);enable-background:new    ;" d="
							M45.2,13.4l1.6,0.1c0,0,1.6,0,2.1,0.8c0,0,0.4,0.3,0.4,1.7v28.2c0,0,0,0.9-0.4,1.5c-0.5,0.6-1.1,0.7-1.8,0.8s-6.7,0.7-6.7,0.7
							s-15.6-9-18.9-35.6L45.2,13.4z"/>
					</g>
				</g>
			</g>
		</g>
		<g>
			<polygon class="st1" points="10.4,6.5 4.5,5.6 4.5,10.5 10.5,10.5 			"/>
			
				<linearGradient id="SVGID_00000143578446450784828030000009591260599489633707_" gradientUnits="userSpaceOnUse" x1="-137.7736" y1="-3408.7244" x2="-133.6712" y2="-3408.7244" gradientTransform="matrix(0.9933 0.1155 -0.1155 0.9933 -250.2222 3409.7261)">
				<stop  offset="0" style="stop-color:#FFFFFF"/>
				<stop  offset="1" style="stop-color:#FFFFFF;stop-opacity:0"/>
			</linearGradient>
			<path style="opacity:0.3;fill:url(#SVGID_00000143578446450784828030000009591260599489633707_);enable-background:new    ;" d="
				M10.2,6.5H10L6.9,5.9c0,2.8,2,3.9,2,3.9s1.2,0.6,1.3,0.6s0.2,0,0.3,0s0.1,0,0.1,0V6.6V6.4L10.2,6.5z"/>
		</g>
		<g>
			<polygon class="st1" points="11.6,5.4 11.6,10.4 17.3,10.4 17.3,7.1 			"/>
			
				<linearGradient id="SVGID_00000108302015702529719580000005379266646384336806_" gradientUnits="userSpaceOnUse" x1="-130.619" y1="-3409.4773" x2="-126.8894" y2="-3409.4773" gradientTransform="matrix(0.9933 0.1155 -0.1155 0.9933 -250.2222 3409.7261)">
				<stop  offset="0" style="stop-color:#FFFFFF"/>
				<stop  offset="1" style="stop-color:#FFFFFF;stop-opacity:0"/>
			</linearGradient>
			<path style="opacity:0.3;fill:url(#SVGID_00000108302015702529719580000005379266646384336806_);enable-background:new    ;" d="
				M17.2,7H17l-3-0.9c0,2.6,1.3,3.2,1.3,3.2s1.6,1,1.7,1s0.1,0,0.2,0h0.1V7.1V6.9L17.2,7z"/>
		</g>
		<g>
			<polygon class="st1" points="12.7,5 8.9,3.9 8.9,0.6 12.7,1.2 			"/>
			
				<linearGradient id="SVGID_00000055686888680738996660000000717195237076613055_" gradientUnits="userSpaceOnUse" x1="-135.2948" y1="-3414.2258" x2="-132.0468" y2="-3414.2258" gradientTransform="matrix(0.9933 0.1155 -0.1155 0.9933 -250.2222 3409.7261)">
				<stop  offset="0" style="stop-color:#FFFFFF"/>
				<stop  offset="1" style="stop-color:#FFFFFF;stop-opacity:0"/>
			</linearGradient>
			<path style="opacity:0.3;fill:url(#SVGID_00000055686888680738996660000000717195237076613055_);enable-background:new    ;" d="
				M12.7,1.1h-0.3L10,0.8c0.4,2.2,1,2.8,1,2.8s1.3,1.3,1.4,1.3c0.1,0,0.2,0.1,0.2,0.1l0.2,0.1V2V1.9L12.7,1.1z"/>
		</g>
		<g>
			<polygon class="st1" points="1.5,3.4 1.5,0.5 4.8,1.1 4.8,3.9 			"/>
			
				<linearGradient id="SVGID_00000048473584200897537680000002453921295231083433_" gradientUnits="userSpaceOnUse" x1="-142.3483" y1="-3413.9507" x2="-140.1137" y2="-3413.9507" gradientTransform="matrix(0.9933 0.1155 -0.1155 0.9933 -250.2222 3409.7261)">
				<stop  offset="0" style="stop-color:#FFFFFF"/>
				<stop  offset="1" style="stop-color:#FFFFFF;stop-opacity:0"/>
			</linearGradient>
			<path style="opacity:0.3;fill:url(#SVGID_00000048473584200897537680000002453921295231083433_);enable-background:new    ;" d="
				M4.8,1.1H4.6L2.9,0.8c0.3,1.6,0.6,2.1,0.6,2.1l0.7,0.9c0,0,0.4,0.1,0.4,0h0.1V1.6V1.5L4.8,1.1z"/>
		</g>
	</g>
	<g>
		<g class="st10">
			<path class="st1" d="M61.3,16.9h4.5c2.1,0,3.5,0.3,4.5,0.9c0.9,0.6,1.4,1.5,1.4,2.8c0,0.9-0.2,1.6-0.6,2.1
				c-0.4,0.6-0.9,0.9-1.6,1v0.1c0.9,0.2,1.6,0.6,2,1.1c0.4,0.6,0.6,1.3,0.6,2.2c0,1.3-0.5,2.4-1.4,3.1s-2.2,1.1-3.9,1.1h-5.4V16.9z
				 M64.4,22.7h1.8c0.8,0,1.4-0.1,1.8-0.4c0.4-0.3,0.6-0.7,0.6-1.3c0-0.6-0.2-1-0.6-1.2c-0.4-0.2-1-0.4-1.9-0.4h-1.6V22.7z
				 M64.4,25.1v3.8h2c0.8,0,1.5-0.2,1.9-0.5s0.6-0.8,0.6-1.5c0-1.2-0.9-1.8-2.6-1.8H64.4z"/>
			<path class="st1" d="M74.9,31.4V16.9H78v14.5H74.9z"/>
			<path class="st1" d="M87.8,19.3c-1.2,0-2,0.4-2.7,1.3c-0.6,0.9-1,2.1-1,3.6c0,3.2,1.2,4.8,3.6,4.8c1,0,2.2-0.3,3.7-0.8v2.6
				c-1.2,0.5-2.5,0.7-4,0.7c-2.1,0-3.7-0.6-4.8-1.9c-1.1-1.3-1.7-3.1-1.7-5.5c0-1.5,0.3-2.8,0.8-4s1.3-2,2.4-2.6
				c1-0.6,2.2-0.9,3.6-0.9c1.4,0,2.8,0.3,4.2,1l-1,2.5c-0.5-0.3-1.1-0.5-1.6-0.7C88.9,19.4,88.3,19.3,87.8,19.3z"/>
			<path class="st1" d="M103.1,27.4c0,1.3-0.5,2.3-1.4,3.1c-0.9,0.8-2.2,1.1-3.9,1.1c-1.5,0-2.9-0.3-4.1-0.9v-2.9
				c1,0.4,1.8,0.7,2.5,0.9c0.7,0.2,1.3,0.3,1.9,0.3c0.7,0,1.2-0.1,1.5-0.4c0.4-0.3,0.5-0.6,0.5-1.1c0-0.3-0.1-0.5-0.2-0.8
				c-0.2-0.2-0.4-0.4-0.7-0.6c-0.3-0.2-0.9-0.5-1.9-1c-0.9-0.4-1.5-0.8-2-1.2c-0.4-0.4-0.8-0.8-1.1-1.3c-0.3-0.5-0.4-1.1-0.4-1.8
				c0-1.3,0.4-2.3,1.3-3c0.9-0.7,2.1-1.1,3.6-1.1c0.8,0,1.5,0.1,2.2,0.3c0.7,0.2,1.4,0.4,2.1,0.8l-1,2.4c-0.8-0.3-1.4-0.5-1.9-0.7
				c-0.5-0.1-1-0.2-1.5-0.2c-0.6,0-1,0.1-1.3,0.4c-0.3,0.3-0.5,0.6-0.5,1.1c0,0.3,0.1,0.5,0.2,0.7c0.1,0.2,0.3,0.4,0.6,0.6
				c0.3,0.2,0.9,0.5,1.9,1c1.4,0.6,2.3,1.3,2.8,1.9C102.9,25.7,103.1,26.5,103.1,27.4z"/>
			<path class="st1" d="M116.5,23.3h5.7v7.5c-0.9,0.3-1.8,0.5-2.6,0.6c-0.8,0.1-1.7,0.2-2.5,0.2c-2.2,0-3.9-0.6-5-1.9
				c-1.2-1.3-1.7-3.1-1.7-5.5c0-2.3,0.7-4.2,2-5.5c1.3-1.3,3.2-2,5.6-2c1.5,0,2.9,0.3,4.3,0.9l-1,2.5c-1.1-0.5-2.2-0.8-3.3-0.8
				c-1.3,0-2.4,0.4-3.2,1.3c-0.8,0.9-1.2,2.1-1.2,3.6c0,1.6,0.3,2.8,1,3.6s1.6,1.2,2.8,1.2c0.6,0,1.3-0.1,2-0.2v-3h-2.7V23.3z"/>
			<path class="st1" d="M125.7,31.4V16.9h3.1v11.9h5.9v2.5H125.7z"/>
			<path class="st1" d="M150.3,24.2c0,2.4-0.6,4.2-1.8,5.5c-1.2,1.3-2.9,1.9-5.1,1.9s-3.9-0.6-5.1-1.9c-1.2-1.3-1.8-3.1-1.8-5.5
				c0-2.4,0.6-4.2,1.8-5.5c1.2-1.3,2.9-1.9,5.1-1.9s3.9,0.6,5.1,1.9C149.7,19.9,150.3,21.8,150.3,24.2z M139.7,24.2
				c0,1.6,0.3,2.8,0.9,3.7c0.6,0.8,1.5,1.2,2.8,1.2c2.4,0,3.7-1.6,3.7-4.9c0-3.3-1.2-4.9-3.7-4.9c-1.2,0-2.1,0.4-2.8,1.2
				C140,21.3,139.7,22.5,139.7,24.2z"/>
			<path class="st1" d="M153.3,16.9h4.5c2.1,0,3.5,0.3,4.5,0.9c0.9,0.6,1.4,1.5,1.4,2.8c0,0.9-0.2,1.6-0.6,2.1s-0.9,0.9-1.6,1v0.1
				c0.9,0.2,1.6,0.6,2,1.1c0.4,0.6,0.6,1.3,0.6,2.2c0,1.3-0.5,2.4-1.4,3.1c-1,0.7-2.2,1.1-3.9,1.1h-5.4V16.9z M156.3,22.7h1.8
				c0.8,0,1.4-0.1,1.8-0.4c0.4-0.3,0.6-0.7,0.6-1.3c0-0.6-0.2-1-0.6-1.2s-1-0.4-1.9-0.4h-1.6V22.7z M156.3,25.1v3.8h2
				c0.8,0,1.5-0.2,1.9-0.5c0.4-0.3,0.6-0.8,0.6-1.5c0-1.2-0.9-1.8-2.6-1.8H156.3z"/>
			<path class="st1" d="M175.8,31.4l-1-3.4h-5.3l-1,3.4h-3.3l5.1-14.5h3.8l5.1,14.5H175.8z M174,25.4c-1-3.1-1.5-4.9-1.6-5.3
				s-0.2-0.7-0.3-1c-0.2,0.8-0.8,2.9-1.9,6.3H174z"/>
			<path class="st1" d="M180.9,31.4V16.9h3.1v11.9h5.9v2.5H180.9z"/>
		</g>
		<g class="st10">
			<path class="st11" d="M71.4,37.8h-1.6v5.4H69v-5.4h-1.6v-0.6h4V37.8z"/>
			<path class="st11" d="M75.5,43c-0.4,0.2-0.8,0.3-1.3,0.3c-0.7,0-1.2-0.2-1.7-0.6c-0.4-0.4-0.6-1-0.6-1.7c0-0.7,0.2-1.3,0.6-1.7
				c0.4-0.4,0.9-0.6,1.5-0.6c0.6,0,1,0.2,1.4,0.5c0.3,0.4,0.5,0.9,0.5,1.6c0,0.2,0,0.4,0,0.5h-3.1c0.1,0.5,0.2,0.8,0.5,1
				c0.3,0.2,0.7,0.4,1.1,0.4c0.5,0,0.9-0.1,1.2-0.3V43z M74,39.2c-0.3,0-0.6,0.1-0.9,0.4s-0.4,0.6-0.4,1.1h2.4v-0.2
				c0-0.4-0.1-0.7-0.3-0.9C74.6,39.3,74.3,39.2,74,39.2z"/>
			<path class="st11" d="M80.1,43c-0.3,0.2-0.6,0.3-1.1,0.3c-0.7,0-1.3-0.2-1.7-0.7c-0.4-0.5-0.6-1-0.6-1.7c0-0.6,0.2-1.2,0.6-1.7
				c0.4-0.5,1-0.7,1.7-0.7c0.4,0,0.7,0.1,1,0.3v0.7c-0.3-0.2-0.6-0.3-1-0.3c-0.5,0-0.9,0.2-1.2,0.5c-0.3,0.3-0.5,0.7-0.5,1.2
				c0,0.5,0.2,0.9,0.5,1.2c0.3,0.3,0.7,0.5,1.3,0.5c0.3,0,0.7-0.1,1-0.3V43z"/>
			<path class="st11" d="M84.8,43.2H84v-3c0-0.3-0.1-0.6-0.3-0.8s-0.4-0.3-0.7-0.3c-0.3,0-0.6,0.1-0.9,0.4s-0.4,0.6-0.4,1.1v2.5
				h-0.7v-6.4h0.7v2.6c0.3-0.6,0.8-0.9,1.4-0.9c0.4,0,0.8,0.1,1.1,0.4c0.3,0.3,0.4,0.6,0.4,1.1V43.2z"/>
			<path class="st11" d="M89.6,43.2h-0.7v-3c0-0.3-0.1-0.6-0.3-0.8s-0.4-0.3-0.7-0.3c-0.3,0-0.6,0.1-0.9,0.4s-0.4,0.6-0.4,1.1v2.5
				H86v-4.6h0.7v0.8c0.3-0.6,0.8-0.9,1.4-0.9c0.4,0,0.8,0.1,1.1,0.4c0.3,0.3,0.4,0.6,0.4,1.1V43.2z"/>
			<path class="st11" d="M94.9,40.9c0,0.7-0.2,1.2-0.6,1.7c-0.4,0.4-0.9,0.7-1.6,0.7c-0.7,0-1.2-0.2-1.6-0.7c-0.4-0.4-0.6-1-0.6-1.7
				c0-0.7,0.2-1.2,0.6-1.7c0.4-0.5,0.9-0.7,1.5-0.7c0.7,0,1.2,0.2,1.6,0.7C94.7,39.7,94.9,40.3,94.9,40.9z M91.3,40.9
				c0,0.5,0.1,0.9,0.4,1.2s0.6,0.5,1,0.5c0.5,0,0.8-0.2,1.1-0.5s0.4-0.7,0.4-1.2c0-0.5-0.1-0.9-0.4-1.2c-0.2-0.3-0.6-0.5-1.1-0.5
				c-0.4,0-0.8,0.2-1,0.5C91.5,40.1,91.3,40.5,91.3,40.9z"/>
			<path class="st11" d="M96.7,43.2H96v-6.4h0.7V43.2z"/>
			<path class="st11" d="M102,40.9c0,0.7-0.2,1.2-0.6,1.7c-0.4,0.4-0.9,0.7-1.6,0.7c-0.7,0-1.2-0.2-1.6-0.7c-0.4-0.4-0.6-1-0.6-1.7
				c0-0.7,0.2-1.2,0.6-1.7c0.4-0.5,0.9-0.7,1.5-0.7c0.7,0,1.2,0.2,1.6,0.7C101.8,39.7,102,40.3,102,40.9z M98.5,40.9
				c0,0.5,0.1,0.9,0.4,1.2s0.6,0.5,1,0.5c0.5,0,0.8-0.2,1.1-0.5s0.4-0.7,0.4-1.2c0-0.5-0.1-0.9-0.4-1.2c-0.2-0.3-0.6-0.5-1.1-0.5
				c-0.4,0-0.8,0.2-1,0.5C98.6,40.1,98.5,40.5,98.5,40.9z"/>
			<path class="st11" d="M106.8,42.8c0,0.7-0.2,1.2-0.6,1.6s-0.9,0.5-1.5,0.5c-0.6,0-1-0.1-1.4-0.3v-0.7c0.4,0.2,0.8,0.3,1.3,0.3
				c0.4,0,0.8-0.1,1-0.4c0.3-0.2,0.4-0.6,0.4-1.1v-0.5c-0.3,0.5-0.7,0.8-1.3,0.8c-0.5,0-1-0.2-1.3-0.6s-0.6-0.9-0.6-1.6
				c0-0.7,0.2-1.2,0.5-1.7s0.8-0.7,1.3-0.7c0.6,0,1.1,0.3,1.4,0.8v-0.8h0.7V42.8z M103.6,40.9c0,0.5,0.1,0.9,0.4,1.2
				c0.3,0.3,0.5,0.4,0.9,0.4c0.3,0,0.6-0.1,0.9-0.4s0.4-0.6,0.4-1.1c0-0.6-0.1-1-0.4-1.3c-0.2-0.3-0.5-0.4-0.9-0.4
				c-0.4,0-0.7,0.2-0.9,0.5C103.7,40,103.6,40.4,103.6,40.9z"/>
			<path class="st11" d="M110,43.1c-0.2,0.6-0.5,1.1-0.8,1.3s-0.7,0.4-1.1,0.4c-0.2,0-0.3,0-0.4,0v-0.6c0.1,0,0.2,0,0.3,0
				c0.6,0,1-0.3,1.3-1l-1.8-4.4h0.8l0.6,1.5l0.8,2.1c0-0.2,0.3-0.8,0.7-2.1l0.5-1.5h0.8L110,43.1z"/>
			<path class="st11" d="M118.1,43.2h-3.4v-6.1h3.3v0.6h-2.6v2.1h2.3v0.6h-2.3v2.1h2.7V43.2z"/>
			<path class="st11" d="M125.3,43.2h-0.7v-3c0-0.7-0.3-1-0.9-1c-0.3,0-0.5,0.1-0.8,0.4c-0.2,0.3-0.3,0.6-0.3,1.1v2.5h-0.7v-3
				c0-0.7-0.3-1-0.9-1c-0.3,0-0.5,0.1-0.8,0.4s-0.3,0.6-0.3,1.1v2.5h-0.7v-4.6h0.7v0.7c0.3-0.5,0.7-0.8,1.3-0.8
				c0.7,0,1.1,0.3,1.3,0.9c0.1-0.3,0.3-0.5,0.6-0.7c0.2-0.2,0.5-0.2,0.8-0.2c0.5,0,0.8,0.1,1.1,0.4c0.2,0.3,0.4,0.6,0.4,1.1V43.2z"
				/>
			<path class="st11" d="M127.2,45h-0.7v-6.3h0.7v0.7c0.3-0.5,0.8-0.8,1.4-0.8c0.6,0,1.1,0.2,1.4,0.7c0.3,0.4,0.5,1,0.5,1.7
				c0,0.7-0.2,1.3-0.5,1.7c-0.4,0.4-0.8,0.7-1.4,0.7c-0.6,0-1.1-0.3-1.4-0.8V45z M127.2,40.9c0,0.6,0.1,1,0.4,1.3
				c0.3,0.3,0.6,0.4,0.9,0.4c0.4,0,0.7-0.2,0.9-0.5s0.4-0.7,0.4-1.3c0-0.5-0.1-0.9-0.4-1.2c-0.2-0.3-0.5-0.5-0.9-0.5
				c-0.4,0-0.7,0.1-1,0.4C127.4,39.9,127.2,40.3,127.2,40.9z"/>
			<path class="st11" d="M135.6,40.9c0,0.7-0.2,1.2-0.6,1.7c-0.4,0.4-0.9,0.7-1.6,0.7c-0.7,0-1.2-0.2-1.6-0.7
				c-0.4-0.4-0.6-1-0.6-1.7c0-0.7,0.2-1.2,0.6-1.7s0.9-0.7,1.5-0.7c0.7,0,1.2,0.2,1.6,0.7C135.4,39.7,135.6,40.3,135.6,40.9z
				 M132.1,40.9c0,0.5,0.1,0.9,0.4,1.2s0.6,0.5,1,0.5c0.5,0,0.8-0.2,1.1-0.5s0.4-0.7,0.4-1.2c0-0.5-0.1-0.9-0.4-1.2
				c-0.2-0.3-0.6-0.5-1.1-0.5c-0.4,0-0.8,0.2-1,0.5C132.2,40.1,132.1,40.5,132.1,40.9z"/>
			<path class="st11" d="M138.5,43.2h-0.9l-1.4-4.6h0.8l0.4,1.5c0.2,0.5,0.3,1,0.4,1.4c0.1,0.4,0.2,0.7,0.2,0.8l0,0.2
				c0.1-0.4,0.3-1.2,0.7-2.4l0.4-1.5h0.8l0.4,1.5l0.7,2.4c0.1-0.4,0.3-1.1,0.7-2.4l0.5-1.5h0.7l-1.4,4.6h-0.9l-0.4-1.5l-0.6-2.3
				c-0.1,0.4-0.3,1.1-0.6,2.3L138.5,43.2z"/>
			<path class="st11" d="M147.1,43c-0.4,0.2-0.8,0.3-1.3,0.3c-0.7,0-1.2-0.2-1.7-0.6c-0.4-0.4-0.6-1-0.6-1.7c0-0.7,0.2-1.3,0.6-1.7
				c0.4-0.4,0.9-0.6,1.5-0.6c0.6,0,1,0.2,1.4,0.5c0.3,0.4,0.5,0.9,0.5,1.6c0,0.2,0,0.4,0,0.5h-3.1c0.1,0.5,0.2,0.8,0.5,1
				c0.3,0.2,0.7,0.4,1.1,0.4c0.5,0,0.9-0.1,1.2-0.3V43z M145.6,39.2c-0.3,0-0.6,0.1-0.9,0.4c-0.2,0.2-0.4,0.6-0.4,1.1h2.4v-0.2
				c0-0.4-0.1-0.7-0.3-0.9C146.2,39.3,145.9,39.2,145.6,39.2z"/>
			<path class="st11" d="M149.2,43.2h-0.7l0-4.6h0.7v0.8c0.2-0.6,0.7-0.8,1.2-0.8c0.1,0,0.2,0,0.3,0v0.7c-0.1,0-0.3-0.1-0.4-0.1
				c-0.3,0-0.6,0.1-0.8,0.4s-0.3,0.6-0.3,1V43.2z"/>
			<path class="st11" d="M155.9,43.2h-2.2v-6.1h1.8c0.6,0,1.1,0.1,1.5,0.4s0.6,0.7,0.6,1.2c0,0.3-0.1,0.6-0.3,0.9
				c-0.2,0.3-0.4,0.4-0.8,0.5c0.3,0.1,0.6,0.2,0.9,0.5s0.4,0.6,0.4,1c0,0.5-0.2,0.9-0.5,1.2S156.5,43.2,155.9,43.2z M155.5,37.8
				h-1.1v2.1h1c0.5,0,0.8-0.1,1.1-0.3c0.2-0.2,0.4-0.5,0.4-0.8c0-0.3-0.1-0.5-0.3-0.7C156.2,37.9,155.9,37.8,155.5,37.8z
				 M155.6,40.5h-1.2v2.1h1.4c0.4,0,0.7-0.1,0.9-0.3c0.2-0.2,0.3-0.4,0.3-0.8c0-0.3-0.1-0.6-0.3-0.8
				C156.4,40.5,156.1,40.5,155.6,40.5z"/>
			<path class="st11" d="M162.3,43.2h-0.7v-0.8c-0.2,0.6-0.7,0.8-1.4,0.8c-0.5,0-0.8-0.1-1.1-0.4c-0.3-0.3-0.4-0.6-0.4-1.1v-3.1h0.7
				v3c0,0.3,0.1,0.6,0.3,0.8s0.4,0.3,0.7,0.3c0.4,0,0.7-0.1,0.9-0.4c0.2-0.3,0.3-0.6,0.3-1.1v-2.5h0.7V43.2z"/>
			<path class="st11" d="M166.4,42c0,0.4-0.1,0.7-0.4,0.9c-0.3,0.2-0.6,0.3-1.1,0.3c-0.6,0-1-0.1-1.3-0.3v-0.7
				c0.4,0.2,0.8,0.4,1.3,0.4c0.3,0,0.5-0.1,0.6-0.2c0.1-0.1,0.2-0.3,0.2-0.4c0-0.2-0.1-0.4-0.2-0.5c-0.2-0.1-0.4-0.3-0.8-0.4
				c-0.3-0.1-0.6-0.3-0.8-0.5s-0.3-0.5-0.3-0.8c0-0.4,0.1-0.7,0.4-0.9c0.3-0.2,0.6-0.3,1.1-0.3c0.5,0,0.9,0.1,1.1,0.2v0.7
				c-0.3-0.2-0.7-0.3-1.1-0.3c-0.2,0-0.4,0.1-0.6,0.2c-0.1,0.1-0.2,0.3-0.2,0.4c0,0.1,0,0.2,0.1,0.3s0.1,0.2,0.2,0.2
				s0.2,0.1,0.3,0.2c0.1,0,0.2,0.1,0.4,0.2c0.4,0.2,0.7,0.3,0.9,0.5S166.4,41.7,166.4,42z"/>
			<path class="st11" d="M168.1,36.9c0.1,0.1,0.1,0.2,0.1,0.3s0,0.2-0.1,0.3s-0.2,0.1-0.3,0.1s-0.2,0-0.3-0.1s-0.1-0.2-0.1-0.3
				s0-0.2,0.1-0.3s0.2-0.1,0.3-0.1S168,36.8,168.1,36.9z M168.1,43.2h-0.7v-4.6h0.7V43.2z"/>
			<path class="st11" d="M173,43.2h-0.7v-3c0-0.3-0.1-0.6-0.3-0.8s-0.4-0.3-0.7-0.3c-0.3,0-0.6,0.1-0.9,0.4s-0.4,0.6-0.4,1.1v2.5
				h-0.7v-4.6h0.7v0.8c0.3-0.6,0.8-0.9,1.4-0.9c0.4,0,0.8,0.1,1.1,0.4c0.3,0.3,0.4,0.6,0.4,1.1V43.2z"/>
			<path class="st11" d="M177.6,43c-0.4,0.2-0.8,0.3-1.3,0.3c-0.7,0-1.2-0.2-1.7-0.6c-0.4-0.4-0.6-1-0.6-1.7c0-0.7,0.2-1.3,0.6-1.7
				c0.4-0.4,0.9-0.6,1.5-0.6c0.6,0,1,0.2,1.4,0.5c0.3,0.4,0.5,0.9,0.5,1.6c0,0.2,0,0.4,0,0.5h-3.1c0.1,0.5,0.2,0.8,0.5,1
				c0.3,0.2,0.7,0.4,1.1,0.4c0.5,0,0.9-0.1,1.2-0.3V43z M176,39.2c-0.3,0-0.6,0.1-0.9,0.4c-0.2,0.2-0.4,0.6-0.4,1.1h2.4v-0.2
				c0-0.4-0.1-0.7-0.3-0.9C176.7,39.3,176.4,39.2,176,39.2z"/>
			<path class="st11" d="M181.7,42c0,0.4-0.1,0.7-0.4,0.9c-0.3,0.2-0.6,0.3-1.1,0.3c-0.6,0-1-0.1-1.3-0.3v-0.7
				c0.4,0.2,0.8,0.4,1.3,0.4c0.3,0,0.5-0.1,0.6-0.2c0.1-0.1,0.2-0.3,0.2-0.4c0-0.2-0.1-0.4-0.2-0.5c-0.2-0.1-0.4-0.3-0.8-0.4
				c-0.3-0.1-0.6-0.3-0.8-0.5c-0.2-0.2-0.3-0.5-0.3-0.8c0-0.4,0.1-0.7,0.4-0.9c0.3-0.2,0.6-0.3,1.1-0.3c0.5,0,0.9,0.1,1.1,0.2v0.7
				c-0.3-0.2-0.7-0.3-1.1-0.3c-0.2,0-0.4,0.1-0.6,0.2c-0.1,0.1-0.2,0.3-0.2,0.4c0,0.1,0,0.2,0.1,0.3s0.1,0.2,0.2,0.2
				c0.1,0.1,0.2,0.1,0.3,0.2s0.2,0.1,0.4,0.2c0.4,0.2,0.7,0.3,0.9,0.5S181.7,41.7,181.7,42z"/>
			<path class="st11" d="M185.4,42c0,0.4-0.1,0.7-0.4,0.9c-0.3,0.2-0.6,0.3-1.1,0.3c-0.6,0-1-0.1-1.3-0.3v-0.7
				c0.4,0.2,0.8,0.4,1.3,0.4c0.3,0,0.5-0.1,0.6-0.2c0.1-0.1,0.2-0.3,0.2-0.4c0-0.2-0.1-0.4-0.2-0.5c-0.2-0.1-0.4-0.3-0.8-0.4
				c-0.3-0.1-0.6-0.3-0.8-0.5s-0.3-0.5-0.3-0.8c0-0.4,0.1-0.7,0.4-0.9c0.3-0.2,0.6-0.3,1.1-0.3c0.5,0,0.9,0.1,1.1,0.2v0.7
				c-0.3-0.2-0.7-0.3-1.1-0.3c-0.2,0-0.4,0.1-0.6,0.2c-0.1,0.1-0.2,0.3-0.2,0.4c0,0.1,0,0.2,0.1,0.3s0.1,0.2,0.2,0.2
				s0.2,0.1,0.3,0.2c0.1,0,0.2,0.1,0.4,0.2c0.4,0.2,0.7,0.3,0.9,0.5S185.4,41.7,185.4,42z"/>
		</g>
		<g class="st10">
			<path class="st12" d="M193.4,17h-1v-3.5h-1.2v-0.9h3.5v0.9h-1.2V17z M197,17l-1-3.3h0l0,0.7V17h-1v-4.5h1.5l1,3.2l1.1-3.2h1.5V17
				h-1v-2.5l0-0.7h0l-1.1,3.3H197z"/>
		</g>
	</g>
</g>
</svg>
